<svg xmlns="http://www.w3.org/2000/svg" xmlns:xlink="http://www.w3.org/1999/xlink" width="500" zoomAndPan="magnify" viewBox="0 0 375 374.999991" height="500" preserveAspectRatio="xMidYMid meet" version="1.0"><defs><g/><clipPath id="841dedc369"><path d="M 43.554688 43.554688 L 331.4375 43.554688 L 331.4375 331.4375 L 43.554688 331.4375 Z M 43.554688 43.554688 " clip-rule="nonzero"/></clipPath><clipPath id="f04deb0409"><path d="M 187.496094 43.554688 C 108 43.554688 43.554688 108 43.554688 187.496094 C 43.554688 266.992188 108 331.4375 187.496094 331.4375 C 266.992188 331.4375 331.4375 266.992188 331.4375 187.496094 C 331.4375 108 266.992188 43.554688 187.496094 43.554688 Z M 187.496094 43.554688 " clip-rule="nonzero"/></clipPath><clipPath id="549093272c"><path d="M 54.335938 173.246094 L 82.835938 173.246094 L 82.835938 201.746094 L 54.335938 201.746094 Z M 54.335938 173.246094 " clip-rule="nonzero"/></clipPath><clipPath id="fc157a34b8"><path d="M 292.394531 173.246094 L 320.894531 173.246094 L 320.894531 201.746094 L 292.394531 201.746094 Z M 292.394531 173.246094 " clip-rule="nonzero"/></clipPath><clipPath id="50175ca7bd"><path d="M 145 102.304688 L 249 102.304688 L 249 193 L 145 193 Z M 145 102.304688 " clip-rule="nonzero"/></clipPath><clipPath id="05ae3516a2"><path d="M 199 158 L 270.054688 158 L 270.054688 272.554688 L 199 272.554688 Z M 199 158 " clip-rule="nonzero"/></clipPath></defs><g clip-path="url(#841dedc369)"><g clip-path="url(#f04deb0409)"><path stroke-linecap="butt" transform="matrix(0.75, 0, 0, 0.75, 43.554074, 43.554069)" fill="none" stroke-linejoin="miter" d="M 191.922706 0.00082448 C 85.927907 0.00082448 0.00081848 85.927913 0.00081848 191.922712 C 0.00081848 297.917511 85.927907 383.8446 191.922706 383.8446 C 297.917505 383.8446 383.844594 297.917511 383.844594 191.922712 C 383.844594 85.927913 297.917505 0.00082448 191.922706 0.00082448 Z M 191.922706 0.00082448 " stroke="#000000" stroke-width="6" stroke-opacity="1" stroke-miterlimit="4"/></g></g><g clip-path="url(#549093272c)"><path fill="#000000" d="M 68.585938 175.4375 C 75.230469 175.4375 80.640625 180.847656 80.640625 187.496094 C 80.640625 194.144531 75.230469 199.550781 68.585938 199.550781 C 61.9375 199.550781 56.527344 194.144531 56.527344 187.496094 C 56.527344 180.847656 61.9375 175.4375 68.585938 175.4375 M 68.585938 173.246094 C 60.714844 173.246094 54.335938 179.625 54.335938 187.496094 C 54.335938 195.363281 60.714844 201.746094 68.585938 201.746094 C 76.453125 201.746094 82.835938 195.363281 82.835938 187.496094 C 82.835938 179.625 76.453125 173.246094 68.585938 173.246094 Z M 68.585938 173.246094 " fill-opacity="1" fill-rule="nonzero"/></g><path fill="#000000" d="M 68.585938 176.753906 C 62.652344 176.753906 57.84375 181.5625 57.84375 187.496094 C 57.84375 193.425781 62.652344 198.234375 68.585938 198.234375 C 74.515625 198.234375 79.324219 193.425781 79.324219 187.496094 C 79.324219 181.5625 74.515625 176.753906 68.585938 176.753906 Z M 65.296875 192.976562 C 64.085938 192.976562 63.101562 191.992188 63.101562 190.78125 C 63.101562 189.574219 64.085938 188.589844 65.296875 188.589844 C 66.507812 188.589844 67.488281 189.574219 67.488281 190.78125 C 67.488281 191.992188 66.507812 192.976562 65.296875 192.976562 Z M 65.296875 186.398438 C 64.085938 186.398438 63.101562 185.417969 63.101562 184.207031 C 63.101562 182.996094 64.085938 182.015625 65.296875 182.015625 C 66.507812 182.015625 67.488281 182.996094 67.488281 184.207031 C 67.488281 185.417969 66.507812 186.398438 65.296875 186.398438 Z M 71.871094 192.976562 C 70.664062 192.976562 69.679688 191.992188 69.679688 190.78125 C 69.679688 189.574219 70.664062 188.589844 71.871094 188.589844 C 73.082031 188.589844 74.066406 189.574219 74.066406 190.78125 C 74.066406 191.992188 73.082031 192.976562 71.871094 192.976562 Z M 71.871094 186.398438 C 70.664062 186.398438 69.679688 185.417969 69.679688 184.207031 C 69.679688 182.996094 70.664062 182.015625 71.871094 182.015625 C 73.082031 182.015625 74.066406 182.996094 74.066406 184.207031 C 74.066406 185.417969 73.082031 186.398438 71.871094 186.398438 Z M 71.871094 186.398438 " fill-opacity="1" fill-rule="nonzero"/><g clip-path="url(#fc157a34b8)"><path fill="#000000" d="M 306.644531 175.4375 C 313.292969 175.4375 318.703125 180.847656 318.703125 187.496094 C 318.703125 194.144531 313.292969 199.550781 306.644531 199.550781 C 299.996094 199.550781 294.589844 194.144531 294.589844 187.496094 C 294.589844 180.847656 299.996094 175.4375 306.644531 175.4375 M 306.644531 173.246094 C 298.777344 173.246094 292.394531 179.625 292.394531 187.496094 C 292.394531 195.363281 298.777344 201.746094 306.644531 201.746094 C 314.515625 201.746094 320.894531 195.363281 320.894531 187.496094 C 320.894531 179.625 314.515625 173.246094 306.644531 173.246094 Z M 306.644531 173.246094 " fill-opacity="1" fill-rule="nonzero"/></g><path fill="#000000" d="M 306.644531 176.753906 C 300.714844 176.753906 295.90625 181.5625 295.90625 187.496094 C 295.90625 193.425781 300.714844 198.234375 306.644531 198.234375 C 312.578125 198.234375 317.386719 193.425781 317.386719 187.496094 C 317.386719 181.5625 312.578125 176.753906 306.644531 176.753906 Z M 303.359375 192.976562 C 302.148438 192.976562 301.164062 191.992188 301.164062 190.78125 C 301.164062 189.574219 302.148438 188.589844 303.359375 188.589844 C 304.566406 188.589844 305.550781 189.574219 305.550781 190.78125 C 305.550781 191.992188 304.566406 192.976562 303.359375 192.976562 Z M 303.359375 186.398438 C 302.148438 186.398438 301.164062 185.417969 301.164062 184.207031 C 301.164062 182.996094 302.148438 182.015625 303.359375 182.015625 C 304.566406 182.015625 305.550781 182.996094 305.550781 184.207031 C 305.550781 185.417969 304.566406 186.398438 303.359375 186.398438 Z M 309.933594 192.976562 C 308.722656 192.976562 307.742188 191.992188 307.742188 190.78125 C 307.742188 189.574219 308.722656 188.589844 309.933594 188.589844 C 311.144531 188.589844 312.125 189.574219 312.125 190.78125 C 312.125 191.992188 311.144531 192.976562 309.933594 192.976562 Z M 309.933594 186.398438 C 308.722656 186.398438 307.742188 185.417969 307.742188 184.207031 C 307.742188 182.996094 308.722656 182.015625 309.933594 182.015625 C 311.144531 182.015625 312.125 182.996094 312.125 184.207031 C 312.125 185.417969 311.144531 186.398438 309.933594 186.398438 Z M 309.933594 186.398438 " fill-opacity="1" fill-rule="nonzero"/><path fill="#040606" d="M 113.074219 223.195312 C 114.148438 219.246094 116.667969 216.019531 120.242188 214.042969 L 149.304688 198.449219 L 178.347656 214.042969 C 181.941406 216.019531 184.445312 219.246094 185.515625 223.195312 Z M 181.941406 207.589844 L 153.058594 192.175781 L 153.058594 191.105469 C 155.925781 190.019531 158.445312 187.878906 159.699219 185.195312 C 161.132812 182.148438 161.132812 178.738281 159.878906 175.695312 C 158.628906 172.828125 156.109375 170.308594 153.058594 169.421875 C 148.941406 168.167969 144.808594 168.878906 141.59375 171.742188 C 139.074219 173.898438 137.640625 177.308594 137.640625 180.898438 L 137.640625 181.0625 C 137.640625 182.328125 138.726562 183.398438 139.980469 183.398438 L 142.84375 183.398438 C 144.097656 183.398438 145.167969 182.328125 145.167969 181.0625 L 145.167969 180.355469 C 145.167969 179.101562 145.710938 178.015625 146.601562 177.125 C 147.507812 176.402344 148.761719 176.054688 150.011719 176.402344 C 151.445312 176.765625 152.699219 177.835938 152.878906 179.28125 C 153.421875 181.785156 151.808594 183.761719 149.832031 184.109375 C 147.144531 184.832031 145.167969 187.171875 145.167969 189.855469 L 145.167969 192.175781 L 116.304688 207.589844 C 109.484375 211.359375 105.003906 218.882812 105.003906 226.953125 C 105.003906 229.09375 106.617188 230.707031 108.777344 230.707031 L 189.832031 230.707031 C 191.988281 230.707031 193.589844 229.09375 193.589844 226.953125 C 193.589844 218.882812 189.105469 211.359375 181.941406 207.589844 " fill-opacity="1" fill-rule="nonzero"/><g clip-path="url(#50175ca7bd)"><path fill="#040606" d="M 156.652344 147.375 C 158.085938 148.988281 160.410156 149.167969 161.855469 147.734375 L 168.84375 141.460938 L 176.023438 188.949219 C 176.371094 190.925781 177.988281 192.175781 179.964844 192.011719 L 203.636719 189.855469 L 208.480469 160.101562 C 209.371094 155.078125 213.503906 151.488281 218.53125 151.488281 C 219.238281 151.488281 219.960938 151.488281 220.671875 151.671875 L 227.3125 153.105469 L 226.769531 136.257812 L 234.839844 141.28125 C 236.636719 142.351562 238.960938 141.824219 239.847656 140.027344 L 247.753906 125.867188 C 248.644531 124.253906 248.285156 122.28125 246.851562 121.207031 L 229.273438 107.046875 C 225.335938 103.820312 220.308594 102.390625 215.121094 102.75 L 207.574219 103.460938 C 207.226562 103.460938 206.867188 103.820312 206.867188 104.183594 C 205.976562 108.84375 201.296875 112.597656 195.203125 113.140625 C 189.105469 113.667969 183.902344 110.804688 182.121094 106.503906 C 181.941406 106.144531 181.578125 105.960938 181.214844 105.960938 L 173.6875 106.6875 C 169.023438 106.867188 164.179688 109.191406 160.953125 113.140625 L 146.253906 130.347656 C 145.167969 131.597656 145.167969 133.574219 146.253906 135.007812 L 156.652344 147.375 " fill-opacity="1" fill-rule="nonzero"/></g><g clip-path="url(#05ae3516a2)"><path fill="#040606" d="M 267.839844 168.878906 L 219.238281 158.667969 C 217.625 158.304688 216.191406 159.378906 215.828125 160.992188 L 199.699219 261.183594 C 199.519531 262.617188 200.40625 264.050781 201.839844 264.410156 L 213.144531 266.734375 C 214.574219 267.09375 216.007812 266.207031 216.371094 264.773438 L 237.179688 191.632812 C 237.34375 191.285156 237.886719 191.285156 237.886719 191.828125 L 227.492188 267.09375 C 227.3125 268.527344 228.199219 269.960938 229.632812 270.140625 L 240.9375 272.480469 C 242.367188 272.824219 243.800781 271.9375 244.164062 270.503906 L 269.996094 172.285156 C 270.34375 170.671875 269.273438 169.238281 267.839844 168.878906 " fill-opacity="1" fill-rule="nonzero"/></g><g fill="#000000" fill-opacity="1"><g transform="translate(108.036077, 108.221307)"><g><path d="M 1.171875 -25.484375 L 3.359375 -22.921875 L -1.296875 -18.953125 L 8.609375 -7.34375 L 5.375 -4.578125 L -4.53125 -16.1875 L -9.203125 -12.203125 L -11.390625 -14.765625 Z M 1.171875 -25.484375 "/></g></g></g><g fill="#000000" fill-opacity="1"><g transform="translate(120.92227, 96.881117)"><g><path d="M 9.765625 -5.265625 C 8.222656 -4.347656 6.773438 -3.796875 5.421875 -3.609375 C 4.078125 -3.429688 2.84375 -3.53125 1.71875 -3.90625 C 0.59375 -4.289062 -0.414062 -4.894531 -1.3125 -5.71875 C -2.21875 -6.550781 -3 -7.519531 -3.65625 -8.625 C -4.300781 -9.71875 -4.769531 -10.859375 -5.0625 -12.046875 C -5.363281 -13.234375 -5.414062 -14.421875 -5.21875 -15.609375 C -5.03125 -16.796875 -4.535156 -17.941406 -3.734375 -19.046875 C -2.929688 -20.148438 -1.757812 -21.160156 -0.21875 -22.078125 C 1.320312 -22.992188 2.765625 -23.535156 4.109375 -23.703125 C 5.453125 -23.867188 6.691406 -23.753906 7.828125 -23.359375 C 8.960938 -22.960938 9.976562 -22.351562 10.875 -21.53125 C 11.78125 -20.707031 12.554688 -19.75 13.203125 -18.65625 C 13.859375 -17.550781 14.332031 -16.40625 14.625 -15.21875 C 14.925781 -14.03125 14.972656 -12.847656 14.765625 -11.671875 C 14.566406 -10.492188 14.066406 -9.359375 13.265625 -8.265625 C 12.472656 -7.179688 11.304688 -6.179688 9.765625 -5.265625 Z M 0.171875 -10.90625 C 0.859375 -9.757812 1.578125 -8.867188 2.328125 -8.234375 C 3.078125 -7.597656 3.914062 -7.269531 4.84375 -7.25 C 5.769531 -7.238281 6.816406 -7.582031 7.984375 -8.28125 C 9.148438 -8.96875 9.945312 -9.71875 10.375 -10.53125 C 10.800781 -11.351562 10.914062 -12.25 10.71875 -13.21875 C 10.53125 -14.195312 10.09375 -15.257812 9.40625 -16.40625 C 8.695312 -17.601562 7.960938 -18.515625 7.203125 -19.140625 C 6.453125 -19.773438 5.613281 -20.097656 4.6875 -20.109375 C 3.757812 -20.128906 2.710938 -19.796875 1.546875 -19.109375 C 0.378906 -18.410156 -0.414062 -17.648438 -0.84375 -16.828125 C -1.269531 -16.015625 -1.382812 -15.125 -1.1875 -14.15625 C -0.988281 -13.1875 -0.535156 -12.101562 0.171875 -10.90625 Z M 0.171875 -10.90625 "/></g></g></g><g fill="#000000" fill-opacity="1"><g transform="translate(138.839346, 86.187517)"><g><path d="M 3.390625 -21.15625 C 4.816406 -21.6875 6.132812 -21.90625 7.34375 -21.8125 C 8.550781 -21.726562 9.644531 -21.410156 10.625 -20.859375 C 11.601562 -20.304688 12.445312 -19.570312 13.15625 -18.65625 C 13.875 -17.738281 14.445312 -16.703125 14.875 -15.546875 C 15.3125 -14.390625 15.5625 -13.222656 15.625 -12.046875 C 15.695312 -10.878906 15.546875 -9.757812 15.171875 -8.6875 C 14.796875 -7.613281 14.179688 -6.644531 13.328125 -5.78125 C 12.472656 -4.925781 11.332031 -4.234375 9.90625 -3.703125 L 1.515625 -0.5625 L -5 -18.015625 Z M 7.828125 -6.546875 C 9.609375 -7.210938 10.707031 -8.15625 11.125 -9.375 C 11.550781 -10.601562 11.414062 -12.144531 10.71875 -14 C 10.019531 -15.863281 9.113281 -17.101562 8 -17.71875 C 6.882812 -18.34375 5.441406 -18.328125 3.671875 -17.671875 L 0.15625 -16.359375 L 4.3125 -5.234375 Z M 7.828125 -6.546875 "/></g></g></g><g fill="#000000" fill-opacity="1"><g transform="translate(156.731727, 79.298723)"><g><path d="M 11 -1.5 C 9.226562 -1.1875 7.675781 -1.179688 6.34375 -1.484375 C 5.019531 -1.785156 3.898438 -2.3125 2.984375 -3.0625 C 2.066406 -3.820312 1.328125 -4.742188 0.765625 -5.828125 C 0.210938 -6.910156 -0.175781 -8.085938 -0.40625 -9.359375 C -0.632812 -10.617188 -0.675781 -11.851562 -0.53125 -13.0625 C -0.382812 -14.28125 -0.0195312 -15.410156 0.5625 -16.453125 C 1.15625 -17.492188 2.019531 -18.390625 3.15625 -19.140625 C 4.300781 -19.898438 5.757812 -20.4375 7.53125 -20.75 C 9.289062 -21.070312 10.828125 -21.078125 12.140625 -20.765625 C 13.453125 -20.453125 14.570312 -19.910156 15.5 -19.140625 C 16.4375 -18.378906 17.179688 -17.457031 17.734375 -16.375 C 18.285156 -15.289062 18.675781 -14.117188 18.90625 -12.859375 C 19.132812 -11.585938 19.175781 -10.347656 19.03125 -9.140625 C 18.894531 -7.929688 18.523438 -6.804688 17.921875 -5.765625 C 17.316406 -4.734375 16.453125 -3.84375 15.328125 -3.09375 C 14.203125 -2.351562 12.757812 -1.820312 11 -1.5 Z M 3.96875 -10.15625 C 4.207031 -8.84375 4.566406 -7.753906 5.046875 -6.890625 C 5.535156 -6.023438 6.207031 -5.425781 7.0625 -5.09375 C 7.925781 -4.757812 9.03125 -4.710938 10.375 -4.953125 C 11.707031 -5.191406 12.71875 -5.617188 13.40625 -6.234375 C 14.09375 -6.847656 14.515625 -7.644531 14.671875 -8.625 C 14.828125 -9.613281 14.785156 -10.765625 14.546875 -12.078125 C 14.296875 -13.441406 13.925781 -14.550781 13.4375 -15.40625 C 12.957031 -16.269531 12.285156 -16.867188 11.421875 -17.203125 C 10.566406 -17.535156 9.472656 -17.582031 8.140625 -17.34375 C 6.796875 -17.101562 5.78125 -16.675781 5.09375 -16.0625 C 4.40625 -15.445312 3.984375 -14.648438 3.828125 -13.671875 C 3.671875 -12.691406 3.71875 -11.519531 3.96875 -10.15625 Z M 3.96875 -10.15625 "/></g></g></g><g fill="#000000" fill-opacity="1"><g transform="translate(177.484713, 75.796951)"><g><path d="M 0.515625 -8.65625 L 12.28125 -9 L 12.375 -6.171875 L 0.609375 -5.828125 Z M 0.515625 -8.65625 "/></g></g></g><g fill="#000000" fill-opacity="1"><g transform="translate(189.608692, 74.783985)"><g><path d="M 27.15625 -15.0625 L 24.625 3.390625 L 20.421875 2.8125 L 22.578125 -12.859375 L 15.5625 2.140625 L 10.6875 1.46875 L 7.984375 -14.96875 L 5.8125 0.796875 L 1.609375 0.21875 L 4.140625 -18.234375 L 11.390625 -17.234375 L 13.75 -2.34375 L 20.03125 -16.046875 Z M 27.15625 -15.0625 "/></g></g></g><g fill="#000000" fill-opacity="1"><g transform="translate(214.369328, 78.260773)"><g><path d="M 10.296875 4.140625 C 8.609375 3.546875 7.257812 2.785156 6.25 1.859375 C 5.25 0.941406 4.535156 -0.0664062 4.109375 -1.171875 C 3.679688 -2.285156 3.492188 -3.453125 3.546875 -4.671875 C 3.609375 -5.898438 3.859375 -7.125 4.296875 -8.34375 C 4.710938 -9.539062 5.28125 -10.628906 6 -11.609375 C 6.726562 -12.585938 7.609375 -13.382812 8.640625 -14 C 9.679688 -14.613281 10.882812 -14.960938 12.25 -15.046875 C 13.613281 -15.140625 15.140625 -14.890625 16.828125 -14.296875 C 18.515625 -13.691406 19.851562 -12.925781 20.84375 -12 C 21.832031 -11.082031 22.535156 -10.054688 22.953125 -8.921875 C 23.378906 -7.796875 23.5625 -6.625 23.5 -5.40625 C 23.445312 -4.1875 23.210938 -2.976562 22.796875 -1.78125 C 22.359375 -0.5625 21.773438 0.535156 21.046875 1.515625 C 20.328125 2.492188 19.453125 3.28125 18.421875 3.875 C 17.390625 4.476562 16.195312 4.820312 14.84375 4.90625 C 13.5 5 11.984375 4.742188 10.296875 4.140625 Z M 8.5 -6.859375 C 8.050781 -5.585938 7.820312 -4.457031 7.8125 -3.46875 C 7.800781 -2.488281 8.085938 -1.640625 8.671875 -0.921875 C 9.253906 -0.203125 10.1875 0.382812 11.46875 0.84375 C 12.75 1.300781 13.835938 1.429688 14.734375 1.234375 C 15.640625 1.035156 16.398438 0.554688 17.015625 -0.203125 C 17.640625 -0.972656 18.175781 -1.992188 18.625 -3.265625 C 19.082031 -4.566406 19.3125 -5.710938 19.3125 -6.703125 C 19.320312 -7.691406 19.035156 -8.546875 18.453125 -9.265625 C 17.878906 -9.984375 16.953125 -10.570312 15.671875 -11.03125 C 14.390625 -11.488281 13.296875 -11.617188 12.390625 -11.421875 C 11.484375 -11.222656 10.722656 -10.738281 10.109375 -9.96875 C 9.492188 -9.195312 8.957031 -8.160156 8.5 -6.859375 Z M 8.5 -6.859375 "/></g></g></g><g fill="#000000" fill-opacity="1"><g transform="translate(234.049588, 85.19368)"><g><path d="M 18.421875 -10.921875 C 19.742188 -10.171875 20.753906 -9.300781 21.453125 -8.3125 C 22.160156 -7.332031 22.613281 -6.285156 22.8125 -5.171875 C 23.019531 -4.054688 23 -2.929688 22.75 -1.796875 C 22.507812 -0.671875 22.082031 0.421875 21.46875 1.484375 C 20.851562 2.554688 20.113281 3.492188 19.25 4.296875 C 18.394531 5.109375 17.4375 5.710938 16.375 6.109375 C 15.3125 6.503906 14.175781 6.644531 12.96875 6.53125 C 11.769531 6.425781 10.507812 6 9.1875 5.25 L 1.40625 0.8125 L 10.640625 -15.359375 Z M 10.046875 1.84375 C 11.703125 2.78125 13.132812 3.019531 14.34375 2.5625 C 15.550781 2.101562 16.644531 1.015625 17.625 -0.703125 C 18.613281 -2.429688 18.988281 -3.925781 18.75 -5.1875 C 18.507812 -6.445312 17.570312 -7.539062 15.9375 -8.46875 L 12.671875 -10.328125 L 6.78125 -0.015625 Z M 10.046875 1.84375 "/></g></g></g><g fill="#000000" fill-opacity="1"><g transform="translate(250.784728, 94.589705)"><g><path d="M 12.421875 10.328125 L 13.828125 6.53125 L 7.40625 1.203125 L 3.9375 3.28125 L 0.65625 0.546875 L 17.609375 -9.578125 L 22.59375 -5.421875 L 15.703125 13.078125 Z M 10.375 -0.5625 L 15.03125 3.296875 L 18.203125 -5.25 Z M 10.375 -0.5625 "/></g></g></g><g fill="#000000" fill-opacity="1"><g transform="translate(72.218977, 256.424714)"><g><path d="M 6.390625 8.953125 C 5.316406 7.578125 4.601562 6.242188 4.25 4.953125 C 3.90625 3.660156 3.851562 2.429688 4.09375 1.265625 C 4.332031 0.0976562 4.804688 -0.988281 5.515625 -2 C 6.222656 -3.007812 7.085938 -3.914062 8.109375 -4.71875 C 9.128906 -5.507812 10.210938 -6.125 11.359375 -6.5625 C 12.503906 -7 13.675781 -7.191406 14.875 -7.140625 C 16.070312 -7.097656 17.265625 -6.75 18.453125 -6.09375 C 19.640625 -5.445312 20.769531 -4.429688 21.84375 -3.046875 C 23.164062 -1.359375 24 0.191406 24.34375 1.609375 C 24.695312 3.023438 24.625 4.351562 24.125 5.59375 C 23.632812 6.84375 22.765625 8.039062 21.515625 9.1875 L 18.8125 5.734375 C 19.832031 4.785156 20.40625 3.785156 20.53125 2.734375 C 20.664062 1.679688 20.207031 0.484375 19.15625 -0.859375 C 18 -2.335938 16.738281 -3.085938 15.375 -3.109375 C 14.007812 -3.128906 12.5 -2.492188 10.84375 -1.203125 C 9.226562 0.0546875 8.25 1.332031 7.90625 2.625 C 7.5625 3.914062 7.96875 5.300781 9.125 6.78125 C 10.226562 8.1875 11.320312 8.960938 12.40625 9.109375 C 13.5 9.253906 14.65625 8.921875 15.875 8.109375 L 18.578125 11.578125 C 17.078125 12.566406 15.65625 13.164062 14.3125 13.375 C 12.976562 13.59375 11.660156 13.34375 10.359375 12.625 C 9.066406 11.914062 7.742188 10.691406 6.390625 8.953125 Z M 6.390625 8.953125 "/></g></g></g><g fill="#000000" fill-opacity="1"><g transform="translate(86.438937, 274.165832)"><g><path d="M 6.609375 1.65625 L 12.875 7.703125 L 10.515625 10.140625 L 1.171875 1.125 L 14.09375 -12.28125 L 17.171875 -9.3125 Z M 6.609375 1.65625 "/></g></g></g><g fill="#000000" fill-opacity="1"><g transform="translate(98.025645, 285.573658)"><g><path d="M 8.71875 6.859375 C 7.269531 5.804688 6.191406 4.703125 5.484375 3.546875 C 4.773438 2.390625 4.375 1.210938 4.28125 0.015625 C 4.1875 -1.171875 4.335938 -2.34375 4.734375 -3.5 C 5.128906 -4.65625 5.707031 -5.757812 6.46875 -6.8125 C 7.207031 -7.84375 8.0625 -8.726562 9.03125 -9.46875 C 10 -10.207031 11.0625 -10.722656 12.21875 -11.015625 C 13.382812 -11.304688 14.632812 -11.304688 15.96875 -11.015625 C 17.3125 -10.734375 18.707031 -10.066406 20.15625 -9.015625 C 21.613281 -7.972656 22.6875 -6.867188 23.375 -5.703125 C 24.0625 -4.535156 24.453125 -3.351562 24.546875 -2.15625 C 24.640625 -0.957031 24.488281 0.21875 24.09375 1.375 C 23.695312 2.53125 23.128906 3.625 22.390625 4.65625 C 21.628906 5.707031 20.765625 6.601562 19.796875 7.34375 C 18.828125 8.082031 17.757812 8.59375 16.59375 8.875 C 15.4375 9.164062 14.195312 9.160156 12.875 8.859375 C 11.5625 8.566406 10.175781 7.898438 8.71875 6.859375 Z M 10.078125 -4.203125 C 9.285156 -3.109375 8.75 -2.085938 8.46875 -1.140625 C 8.1875 -0.203125 8.222656 0.691406 8.578125 1.546875 C 8.929688 2.398438 9.660156 3.226562 10.765625 4.03125 C 11.867188 4.820312 12.878906 5.25 13.796875 5.3125 C 14.722656 5.375 15.585938 5.125 16.390625 4.5625 C 17.203125 4 18.003906 3.171875 18.796875 2.078125 C 19.597656 0.953125 20.140625 -0.0820312 20.421875 -1.03125 C 20.703125 -1.976562 20.664062 -2.878906 20.3125 -3.734375 C 19.957031 -4.585938 19.226562 -5.410156 18.125 -6.203125 C 17.019531 -7.003906 16.003906 -7.4375 15.078125 -7.5 C 14.160156 -7.5625 13.296875 -7.304688 12.484375 -6.734375 C 11.679688 -6.171875 10.878906 -5.328125 10.078125 -4.203125 Z M 10.078125 -4.203125 "/></g></g></g><g fill="#000000" fill-opacity="1"><g transform="translate(117.098814, 299.007797)"><g><path d="M 23.96875 -8.75 L 22.453125 -5.75 L 16.984375 -8.515625 L 10.09375 5.109375 L 6.296875 3.1875 L 13.1875 -10.4375 L 7.71875 -13.203125 L 9.234375 -16.203125 Z M 23.96875 -8.75 "/></g></g></g><g fill="#000000" fill-opacity="1"><g transform="translate(134.511074, 307.800236)"><g><path d="M 19.515625 -13.140625 L 23.546875 -11.8125 L 17.6875 5.859375 L 13.65625 4.53125 L 16.125 -2.90625 L 8.03125 -5.59375 L 5.5625 1.84375 L 1.546875 0.515625 L 7.40625 -17.15625 L 11.421875 -15.828125 L 9.078125 -8.765625 L 17.171875 -6.078125 Z M 19.515625 -13.140625 "/></g></g></g><g fill="#000000" fill-opacity="1"><g transform="translate(154.754899, 314.239336)"><g><path d="M 15.390625 -12.625 L 12.015625 -13.265625 L 9.796875 -1.59375 L 13.171875 -0.953125 L 12.546875 2.375 L 1.59375 0.296875 L 2.21875 -3.03125 L 5.59375 -2.390625 L 7.8125 -14.0625 L 4.4375 -14.703125 L 5.0625 -18 L 16.015625 -15.921875 Z M 15.390625 -12.625 "/></g></g></g><g fill="#000000" fill-opacity="1"><g transform="translate(169.906002, 317.275725)"><g><path d="M 16.484375 -17.8125 L 20.5625 -17.609375 L 19.625 0.984375 L 12.578125 0.640625 L 7.40625 -12.359375 C 7.21875 -12.847656 7.050781 -13.335938 6.90625 -13.828125 C 6.757812 -14.316406 6.625 -14.796875 6.5 -15.265625 L 5.71875 0.28125 L 1.625 0.078125 L 2.5625 -18.515625 L 9.609375 -18.15625 L 14.828125 -4.984375 C 14.972656 -4.578125 15.125 -4.140625 15.28125 -3.671875 C 15.4375 -3.210938 15.578125 -2.738281 15.703125 -2.25 Z M 16.484375 -17.8125 "/></g></g></g><g fill="#000000" fill-opacity="1"><g transform="translate(192.447848, 318.339339)"><g><path d="M 10.125 -0.703125 C 8.09375 -0.472656 6.375 -0.71875 4.96875 -1.4375 C 3.570312 -2.164062 2.472656 -3.226562 1.671875 -4.625 C 0.878906 -6.03125 0.378906 -7.625 0.171875 -9.40625 C -0.046875 -11.207031 0.101562 -12.878906 0.625 -14.421875 C 1.144531 -15.972656 2.085938 -17.269531 3.453125 -18.3125 C 4.828125 -19.351562 6.671875 -20.007812 8.984375 -20.28125 C 11.046875 -20.519531 12.757812 -20.425781 14.125 -20 C 15.488281 -19.570312 16.550781 -18.894531 17.3125 -17.96875 C 18.082031 -17.039062 18.597656 -15.921875 18.859375 -14.609375 L 14.578125 -14.109375 C 14.335938 -15.148438 13.789062 -15.929688 12.9375 -16.453125 C 12.082031 -16.972656 10.882812 -17.144531 9.34375 -16.96875 C 7.488281 -16.75 6.171875 -16.066406 5.390625 -14.921875 C 4.609375 -13.785156 4.347656 -12.113281 4.609375 -9.90625 C 4.847656 -7.820312 5.453125 -6.285156 6.421875 -5.296875 C 7.390625 -4.316406 8.800781 -3.9375 10.65625 -4.15625 C 11.875 -4.300781 12.828125 -4.601562 13.515625 -5.0625 C 14.203125 -5.519531 14.6875 -6.09375 14.96875 -6.78125 C 15.25 -7.46875 15.398438 -8.207031 15.421875 -9 L 8.828125 -8.21875 L 8.5 -10.96875 L 19.109375 -12.21875 L 20.265625 -2.375 L 16.65625 -1.953125 L 16.234375 -5.5 C 16.085938 -4.75 15.78125 -4.035156 15.3125 -3.359375 C 14.84375 -2.691406 14.1875 -2.117188 13.34375 -1.640625 C 12.507812 -1.171875 11.4375 -0.859375 10.125 -0.703125 Z M 10.125 -0.703125 "/></g></g></g><g fill="#000000" fill-opacity="1"><g transform="translate(215.208268, 315.205516)"><g/></g></g><g fill="#000000" fill-opacity="1"><g transform="translate(222.905777, 313.671783)"><g><path d="M -0.9375 -6.15625 L 2.984375 -7.484375 C 3.347656 -6.554688 3.953125 -5.894531 4.796875 -5.5 C 5.640625 -5.101562 6.757812 -5.140625 8.15625 -5.609375 C 9.488281 -6.066406 10.335938 -6.59375 10.703125 -7.1875 C 11.078125 -7.78125 11.144531 -8.429688 10.90625 -9.140625 C 10.46875 -10.421875 9.429688 -10.894531 7.796875 -10.5625 L 3.71875 -9.75 C 2.101562 -9.425781 0.726562 -9.539062 -0.40625 -10.09375 C -1.539062 -10.644531 -2.351562 -11.648438 -2.84375 -13.109375 C -3.382812 -14.691406 -3.222656 -16.203125 -2.359375 -17.640625 C -1.503906 -19.078125 0.15625 -20.21875 2.625 -21.0625 C 4.394531 -21.65625 5.914062 -21.882812 7.1875 -21.75 C 8.457031 -21.613281 9.503906 -21.207031 10.328125 -20.53125 C 11.160156 -19.851562 11.789062 -19.003906 12.21875 -17.984375 L 8.265625 -16.65625 C 7.878906 -17.445312 7.300781 -17.984375 6.53125 -18.265625 C 5.757812 -18.546875 4.789062 -18.488281 3.625 -18.09375 C 2.550781 -17.726562 1.804688 -17.242188 1.390625 -16.640625 C 0.972656 -16.046875 0.878906 -15.40625 1.109375 -14.71875 C 1.285156 -14.207031 1.597656 -13.828125 2.046875 -13.578125 C 2.492188 -13.335938 3.097656 -13.300781 3.859375 -13.46875 L 7.703125 -14.265625 C 11.421875 -15.085938 13.796875 -13.976562 14.828125 -10.9375 C 15.222656 -9.78125 15.3125 -8.679688 15.09375 -7.640625 C 14.875 -6.609375 14.28125 -5.664062 13.3125 -4.8125 C 12.351562 -3.96875 10.957031 -3.234375 9.125 -2.609375 C 7.675781 -2.117188 6.390625 -1.867188 5.265625 -1.859375 C 4.140625 -1.859375 3.175781 -2.050781 2.375 -2.4375 C 1.570312 -2.832031 0.894531 -3.351562 0.34375 -4 C -0.207031 -4.644531 -0.632812 -5.363281 -0.9375 -6.15625 Z M -0.9375 -6.15625 "/></g></g></g><g fill="#000000" fill-opacity="1"><g transform="translate(241.613407, 307.220081)"><g><path d="M 7.109375 -24.5 L 8.640625 -21.5 L 3.1875 -18.734375 L 10.09375 -5.125 L 6.296875 -3.203125 L -0.609375 -16.8125 L -6.078125 -14.03125 L -7.609375 -17.03125 Z M 7.109375 -24.5 "/></g></g></g><g fill="#000000" fill-opacity="1"><g transform="translate(259.08816, 298.404789)"><g><path d="M 9.28125 -6.125 C 7.820312 -5.070312 6.425781 -4.390625 5.09375 -4.078125 C 3.769531 -3.773438 2.53125 -3.765625 1.375 -4.046875 C 0.21875 -4.328125 -0.84375 -4.835938 -1.8125 -5.578125 C -2.789062 -6.328125 -3.65625 -7.222656 -4.40625 -8.265625 C -5.15625 -9.296875 -5.726562 -10.390625 -6.125 -11.546875 C -6.519531 -12.703125 -6.675781 -13.878906 -6.59375 -15.078125 C -6.507812 -16.273438 -6.113281 -17.460938 -5.40625 -18.640625 C -4.707031 -19.816406 -3.628906 -20.929688 -2.171875 -21.984375 C -0.722656 -23.023438 0.65625 -23.6875 1.96875 -23.96875 C 3.289062 -24.257812 4.535156 -24.257812 5.703125 -23.96875 C 6.878906 -23.675781 7.953125 -23.160156 8.921875 -22.421875 C 9.890625 -21.679688 10.75 -20.796875 11.5 -19.765625 C 12.25 -18.722656 12.820312 -17.625 13.21875 -16.46875 C 13.613281 -15.3125 13.765625 -14.132812 13.671875 -12.9375 C 13.578125 -11.75 13.179688 -10.578125 12.484375 -9.421875 C 11.796875 -8.265625 10.726562 -7.164062 9.28125 -6.125 Z M -0.796875 -10.875 C -0.015625 -9.789062 0.773438 -8.96875 1.578125 -8.40625 C 2.390625 -7.84375 3.253906 -7.59375 4.171875 -7.65625 C 5.085938 -7.71875 6.101562 -8.148438 7.21875 -8.953125 C 8.3125 -9.742188 9.035156 -10.566406 9.390625 -11.421875 C 9.742188 -12.273438 9.78125 -13.175781 9.5 -14.125 C 9.21875 -15.070312 8.6875 -16.085938 7.90625 -17.171875 C 7.09375 -18.296875 6.28125 -19.140625 5.46875 -19.703125 C 4.65625 -20.265625 3.789062 -20.515625 2.875 -20.453125 C 1.957031 -20.390625 0.953125 -19.960938 -0.140625 -19.171875 C -1.253906 -18.367188 -1.988281 -17.539062 -2.34375 -16.6875 C -2.695312 -15.832031 -2.726562 -14.929688 -2.4375 -13.984375 C -2.15625 -13.035156 -1.609375 -12 -0.796875 -10.875 Z M -0.796875 -10.875 "/></g></g></g><g fill="#000000" fill-opacity="1"><g transform="translate(277.884403, 284.554609)"><g><path d="M 8.921875 -15.28125 L 9.8125 -14.390625 C 10.351562 -13.835938 10.820312 -13.414062 11.21875 -13.125 C 11.613281 -12.832031 12 -12.566406 12.375 -12.328125 L 9.375 -9.328125 C 9.050781 -9.484375 8.679688 -9.722656 8.265625 -10.046875 C 7.847656 -10.378906 7.375 -10.816406 6.84375 -11.359375 L 6.140625 -12.0625 C 5.410156 -12.800781 4.671875 -13.132812 3.921875 -13.0625 C 3.179688 -13 2.484375 -12.640625 1.828125 -11.984375 L -0.890625 -9.28125 L 4.1875 -4.171875 L 1.15625 -1.140625 L -11.984375 -14.34375 L -5.015625 -21.28125 C -3.566406 -22.726562 -2.144531 -23.476562 -0.75 -23.53125 C 0.644531 -23.59375 1.875 -23.085938 2.9375 -22.015625 C 3.863281 -21.085938 4.359375 -20.054688 4.421875 -18.921875 C 4.492188 -17.796875 4.222656 -16.757812 3.609375 -15.8125 C 4.179688 -16.144531 4.753906 -16.382812 5.328125 -16.53125 C 5.910156 -16.675781 6.5 -16.660156 7.09375 -16.484375 C 7.6875 -16.316406 8.296875 -15.914062 8.921875 -15.28125 Z M 0.203125 -14.671875 C 0.890625 -15.359375 1.210938 -16.003906 1.171875 -16.609375 C 1.140625 -17.210938 0.820312 -17.816406 0.21875 -18.421875 C -0.332031 -18.984375 -0.898438 -19.265625 -1.484375 -19.265625 C -2.066406 -19.265625 -2.691406 -18.929688 -3.359375 -18.265625 L -6.609375 -15.03125 L -3.046875 -11.4375 Z M 0.203125 -14.671875 "/></g></g></g><g fill="#000000" fill-opacity="1"><g transform="translate(291.95771, 270.389391)"><g><path d="M 0.84375 -6.734375 L 7.140625 -15.078125 L 9.84375 -13.03125 L 0.984375 -1.296875 L -13.875 -12.53125 L -5.078125 -24.1875 L -2.390625 -22.15625 L -8.625 -13.890625 L -5.296875 -11.375 L 0.453125 -18.984375 L 2.984375 -17.078125 L -2.765625 -9.46875 Z M 0.84375 -6.734375 "/></g></g></g></svg>